<?xml version="1.0" standalone="no"?>
<!DOCTYPE svg PUBLIC "-//W3C//DTD SVG 20010904//EN"
 "http://www.w3.org/TR/2001/REC-SVG-20010904/DTD/svg10.dtd">
<svg version="1.0" xmlns="http://www.w3.org/2000/svg"
 width="260.000000pt" height="260.000000pt" viewBox="0 0 260.000000 260.000000"
 preserveAspectRatio="xMidYMid meet">
<metadata>
Created by potrace 1.14, written by Peter Selinger 2001-2017
</metadata>
<g transform="translate(0.000000,260.000000) scale(0.100000,-0.100000)"
fill="#000000" stroke="none">
<path d="M0 1300 l0 -1300 1300 0 1300 0 0 1300 0 1300 -1300 0 -1300 0 0
-1300z m960 480 c41 -6 107 -19 145 -29 91 -26 520 -117 611 -130 154 -23 247
-76 260 -149 3 -20 12 -47 20 -59 19 -30 18 -83 0 -83 -8 0 -20 -17 -27 -37
-22 -68 -78 -171 -104 -191 -35 -28 -103 -37 -165 -22 -129 31 -240 214 -240
395 0 70 -21 95 -83 95 -47 0 -52 -6 -96 -113 -13 -31 -49 -77 -103 -131 -66
-66 -95 -88 -143 -106 -103 -40 -270 -37 -360 6 -65 30 -121 190 -108 307 6
47 6 47 -25 47 -17 0 -88 -12 -159 -26 -121 -24 -129 -24 -156 -8 -21 12 -40
14 -69 10 -70 -11 -95 38 -37 73 25 16 53 19 148 21 64 0 153 4 198 8 45 4 93
4 108 -1 23 -8 30 -4 62 32 40 47 71 65 145 85 64 18 82 18 178 6z m1480 -215
c0 -2 -11 -15 -25 -29 -15 -15 -25 -36 -25 -54 0 -16 -15 -58 -33 -93 -73
-138 -86 -166 -103 -207 -10 -24 -30 -52 -45 -63 -15 -10 -30 -32 -34 -47 -6
-29 -64 -107 -72 -98 -3 3 6 20 20 38 13 18 30 49 36 69 6 19 24 45 40 57 19
14 36 41 49 81 11 33 34 80 51 104 36 53 71 138 71 173 0 25 40 74 60 74 5 0
10 -2 10 -5z m-1060 -108 c0 -12 7 -44 16 -72 14 -46 64 -269 64 -288 0 -5 -5
-7 -11 -5 -6 2 -27 64 -45 138 -38 151 -54 268 -36 256 7 -4 12 -17 12 -29z
m680 -518 c0 -5 -7 -9 -15 -9 -11 0 -15 -11 -15 -41 0 -32 3 -40 14 -36 10 4
13 1 10 -8 -3 -8 -124 -42 -322 -90 -174 -43 -324 -81 -332 -86 -11 -6 -8 -9
13 -14 15 -4 27 -11 27 -16 0 -15 -23 -10 -67 15 -64 37 -137 49 -257 44 -58
-3 -103 -1 -101 3 11 17 103 39 164 39 36 0 82 5 101 10 19 5 168 43 330 84
407 105 414 107 424 117 10 9 26 3 26 -12z"/>
<path d="M815 1763 c-47 -10 -112 -38 -138 -60 -16 -12 -24 -23 -18 -23 5 0
13 5 16 10 8 13 86 53 91 47 3 -2 -19 -24 -48 -48 -94 -76 -87 -79 12 -4 53
41 93 65 104 65 18 0 -4 -24 -81 -91 -107 -91 -132 -107 -73 -45 l45 47 -61
-40 c-35 -23 -64 -51 -68 -64 -18 -67 3 -190 44 -260 61 -103 309 -117 453
-25 73 47 151 142 176 215 32 95 29 119 -23 169 -26 24 -68 51 -101 63 -98 37
-262 59 -330 44z m129 -27 c-3 -7 -49 -49 -101 -92 -128 -105 -162 -136 -88
-82 152 112 248 167 259 149 3 -4 -47 -49 -112 -99 -64 -50 -142 -116 -172
-148 l-55 -57 105 80 c103 78 284 203 295 203 19 0 -7 -26 -92 -93 -54 -42
-136 -115 -183 -164 -47 -48 -76 -80 -65 -71 11 8 70 55 130 104 105 84 280
204 298 204 16 0 -5 -21 -101 -98 -53 -44 -131 -112 -172 -151 l-75 -72 85 62
c120 89 284 191 289 178 2 -6 -7 -18 -19 -26 -63 -44 -191 -159 -235 -210 -27
-32 -43 -53 -35 -47 8 6 53 42 100 79 101 82 219 159 228 151 3 -4 -12 -21
-34 -38 -21 -18 -77 -70 -124 -116 l-85 -85 67 54 c76 62 135 96 146 85 4 -4
-11 -22 -33 -39 -22 -18 -58 -49 -80 -71 l-40 -38 38 22 c50 29 47 10 -4 -24
-43 -29 -82 -29 -59 -1 7 8 8 15 2 15 -5 0 -15 -7 -22 -15 -7 -8 -19 -15 -26
-15 -30 0 -10 35 62 107 83 83 64 72 -71 -41 -85 -71 -115 -89 -115 -67 0 16
93 123 161 186 l64 59 -70 -49 c-38 -27 -101 -72 -139 -102 -38 -29 -73 -53
-78 -53 -27 0 5 41 110 141 108 103 111 107 42 53 -41 -32 -115 -91 -163 -133
-64 -54 -91 -71 -99 -63 -8 8 20 43 103 129 63 65 105 111 94 102 -83 -68
-218 -169 -224 -169 -19 0 -19 15 -1 40 16 23 86 87 240 220 47 40 -5 7 -118
-77 -109 -81 -148 -100 -135 -67 3 8 49 50 102 93 109 89 183 156 161 145 -30
-15 -127 -83 -195 -138 -65 -52 -95 -67 -95 -48 0 15 18 34 28 29 5 -4 47 23
93 59 126 100 230 153 213 110z"/>
<path d="M1266 1664 c28 -28 44 -52 44 -68 0 -24 1 -24 30 -10 33 17 98 6 120
-21 11 -14 14 -13 24 7 6 13 31 30 55 39 l44 16 -84 16 c-46 10 -128 28 -181
40 l-97 24 45 -43z"/>
<path d="M739 1673 c-13 -16 -12 -17 4 -4 16 13 21 21 13 21 -2 0 -10 -8 -17
-17z"/>
<path d="M1581 1601 c-14 -4 -26 -12 -29 -20 -3 -9 4 -9 27 3 17 9 31 19 31
21 0 3 -1 5 -2 4 -2 -1 -14 -4 -27 -8z"/>
<path d="M1633 1559 c-74 -63 -73 -65 7 -15 71 44 100 55 100 39 -1 -5 -37
-35 -81 -68 -44 -33 -88 -69 -97 -80 -12 -14 -7 -12 18 6 52 38 193 119 207
119 29 0 8 -22 -97 -99 -123 -90 -150 -128 -37 -53 156 104 247 150 247 125 0
-5 -47 -47 -104 -92 -141 -111 -151 -127 -30 -49 125 81 142 90 148 80 3 -5
-39 -39 -93 -75 -96 -66 -201 -158 -201 -179 0 -12 71 28 160 92 92 65 128 85
137 76 4 -5 2 -11 -5 -13 -17 -6 -118 -84 -167 -128 l-40 -36 75 46 c75 45
137 71 147 62 9 -10 -7 -25 -86 -81 -91 -63 -117 -92 -43 -46 47 29 92 39 92
21 0 -4 -28 -27 -62 -50 -68 -44 -71 -53 -8 -21 22 11 45 20 53 20 15 0 69
110 87 178 8 30 8 59 1 100 -14 74 -53 113 -146 141 -100 31 -125 28 -182 -20z"/>
<path d="M1560 1553 c-36 -20 -68 -41 -72 -47 -13 -19 -9 -100 8 -157 36 -119
107 -215 179 -239 34 -11 39 -10 58 8 l20 21 -21 -6 c-16 -4 -22 -1 -22 10 0
14 31 45 95 95 34 27 23 21 -54 -25 -64 -38 -86 -42 -78 -13 5 18 3 19 -24 5
-15 -8 -33 -15 -39 -15 -21 0 -9 40 23 77 26 31 28 34 7 20 -27 -19 -50 -22
-50 -8 0 9 77 80 200 184 l45 38 -60 -38 c-33 -20 -93 -58 -134 -85 -118 -77
-138 -60 -40 35 65 63 63 63 -20 5 -81 -57 -112 -46 -50 18 l31 32 -26 -5
c-14 -3 -26 -2 -26 2 0 4 28 34 63 66 34 32 60 59 57 59 -3 0 -34 -17 -70 -37z"/>
<path d="M1519 1563 c-13 -16 -12 -17 4 -4 9 7 17 15 17 17 0 8 -8 3 -21 -13z"/>
<path d="M1820 1120 c-26 -14 -30 -19 -15 -19 11 0 31 8 45 19 32 25 15 25
-30 0z"/>
<path d="M1925 889 c-33 -10 -138 -37 -233 -59 -95 -22 -180 -44 -190 -49 -9
-5 -49 -14 -89 -21 -79 -13 -109 -33 -80 -55 14 -10 54 0 250 62 319 102 435
141 417 141 -8 0 -42 -8 -75 -19z m-428 -135 c-3 -3 -12 -4 -19 -1 -8 3 -5 6
6 6 11 1 17 -2 13 -5z"/>
<path d="M1853 827 c-73 -23 -131 -43 -129 -45 8 -7 295 71 290 79 -7 13 -14
11 -161 -34z"/>
</g>
</svg>
